<?xml version="1.0" encoding="UTF-8"?>
<svg id="Layer_2" data-name="Layer 2" xmlns="http://www.w3.org/2000/svg" viewBox="0 0 633.63 803.77">
  <g id="Layer_1-2" data-name="Layer 1">
    <path d="M290.44,783.74c-24.59,1.46-48.84-1.55-72.88-6.23-14.46-2.81-28.87-6.04-43.07-9.95-6.92-1.9-13.33-5.72-19.91-8.79-5.63-2.63-11.12-5.57-16.77-8.14-12.62-5.73-23.35-14.2-33.95-22.9-12.71-10.42-23.91-22.36-33.83-35.36-6.87-9-12.76-18.74-17.45-29.23-5.7-12.75-8.96-25.91-8.33-39.8,.27-5.81,1.22-11.94,3.46-17.25,8.79-20.91,21.9-38.63,42.29-49.46,11.62-6.17,24.27-9.36,37.29-3.37,23.82,10.97,49.11,16.8,74.59,22.26,15.78,3.38,31.75,3.86,47.67,5.42,18.61,1.82,37.28,1.72,55.92,1.08,12.44-.42,24.46-3.38,35.98-8.63s20.72-11.74,30.55-18.38c17.07-11.52,34.96-21.61,53.05-31.33,5.23-2.81,11.26-4.09,16.84-6.28,13.7-5.36,27.97-7.67,42.59-7.87,17.09-.23,33.71,2.65,49.98,7.88,9.1,2.92,17.48,7.12,25.28,12.65,9.61,6.8,18.05,14.87,26.29,23.19,.81,.81,1.56,1.73,2.13,2.72,6,10.43,11.59,21.12,15.03,32.65,2.12,7.09,3.12,14.59,3.89,21.99,1.64,15.92-2.11,31.16-8.36,45.54-4.37,10.05-9.55,19.85-16.82,28.43-10.29,12.14-21.86,22.95-34.27,32.72-9.32,7.34-19.55,13.6-29.76,19.67-7.68,4.56-15.77,8.59-24.06,11.92-9.16,3.68-18.7,6.45-28.16,9.35-20.88,6.39-42.19,11.06-63.75,14.44-23.63,3.71-47.29,7.27-71.04,10.05-11.47,1.34-23.16,.74-34.75,1-1.89,.04-3.79,0-5.69,0Zm236.02-63.35c11.81-6.74,22.7-15.61,32.23-26.37-.46-.76-.84-1.64-1.44-2.33-7.49-8.56-14.85-17.24-22.55-25.61-11.68-12.69-24.41-24.22-39.25-33.17-4.95-2.99-9.91-6.72-15.35-7.96-11.04-2.5-22.39-4.6-33.67-4.9-13.53-.36-27.15,.97-40.67,2.24-11.59,1.09-22.14,5.29-30.18,14.14-4.54,5-5.77,11.49-1.79,16.34,3.09,3.77,6.82,6.56,11.96,6.82,7.14,.36,14.3,.64,21.43,1.14,8.27,.58,16.61,.87,24.78,2.16,14.85,2.34,28.48,8.09,41.17,16.16,12.62,8.03,23.14,18.86,36.14,26.48,6.3,3.69,11.29,9.64,17.19,14.84Zm-297.99-131.24c-3.62,6.4-2.64,13.6-2.48,20.72,.29,12.88,6.69,21.99,17.35,28.52,.56,.34,1.47,.67,1.96,.45,2.76-1.27,5.78-2.28,8.1-4.15,14.09-11.35,17.44-26.74,16.06-43.67l-40.99-1.87Zm130.67,181.6c-.22-1.69-.03-3.42-.68-4.73-7.12-14.11-16.07-26.74-30.15-34.77-2.91-1.66-6.17-2.93-9.82-.92-7.5,4.12-11.94,10.81-15.54,18.13-.63,1.27,.25,3.61,1.03,5.16,1.21,2.42,3.21,4.45,4.38,6.88,2.12,4.39,3.88,8.96,6.02,13.98l44.78-3.74Zm115.09-24.08c-1.99-3.26-3.28-5.81-4.96-8.06-5.9-7.92-13.6-13.84-22.26-18.32-5.86-3.03-12.24-5.15-19.05-4.85-.98,.04-2.46,.65-2.8,1.41-1.76,4-4.04,8.01-4.6,12.23-.91,6.85-1.06,13.88-.64,20.78,.19,3.09,2.49,6.08,3.98,9.04,.16,.33,1.33,.33,1.97,.21,3.31-.64,6.63-1.24,9.88-2.1,12.58-3.32,25.14-6.74,38.47-10.33Zm-59.19,15.01c-5-10.04-11.13-18.52-19.21-25.41-3.81-3.25-8.09-5.99-12.35-8.66-3.65-2.29-7.35-2.53-10.89,.71-6.11,5.6-10.05,12.56-13.12,20.1-.3,.75-.27,1.96,.15,2.62,3.64,5.77,7.46,11.43,8.49,18.79l46.94-8.15Zm-150.94-27.36c-3.85,5.38-7.45,10.68-11.34,15.76-2.73,3.57-3.13,6.83,0,10.29,.48,.53,.8,1.26,.98,1.96,.99,3.8,1.9,7.61,3.05,12.26l48.11,1.78c-.38-2.56-.23-4.58-.98-6.17-8.19-17.26-21.31-29.15-39.83-35.89Zm-47.81-147.64c-5.57-.72-10.7-1.12-15.73-2.09-7.95-1.52-15.81-3.46-23.74-5.11-.93-.19-2.61,.02-2.92,.59-1.18,2.19-2.5,4.55-2.77,6.95-1.45,13.2,1.53,25.01,11.52,34.48,2.74,2.6,3.89,2.7,6.96,.52,7.94-5.66,12.58-14.04,18.06-21.71,3.03-4.24,5.6-8.83,8.61-13.64Zm302.58,139.19c-5.03-6.13-10.83-10.96-17.47-15.06-7.49-4.63-15.53-6.25-24.04-6.25-2.81,0-6.05,.73-6.46,4.26-.63,5.51-.76,11.07-1.05,16.62-.02,.35,.31,.77,.58,1.08,4.59,5.32,9.31,10.54,11.52,17.33,6.35-1.29,29-12.35,36.92-17.97Zm-204.55-134.42h-33.99c-.93,7.08-.57,11.01,2.08,18.63,4.44,12.81,15.43,17.71,28.2,15.02,1.79-.38,4.26-2.8,4.47-4.51,1.17-9.86,.67-19.74-.76-29.14Zm-91.71,145.39c-5.15,5.43-10.05,10.73-15.11,15.88-2.3,2.34-3.27,4.53-1.38,7.68,.81,1.35,.85,3.24,.94,4.91,.09,1.77,.74,2.65,2.54,2.89,2.29,.31,4.54,.89,6.83,1.25,10.26,1.62,20.52,3.19,31.55,4.91-3.28-16.14-11.57-28.01-25.37-37.52Zm-23.81,27.85c-7.86-15.34-10.26-19.52-22.94-26.95-4.61-2.71-9.76-3.26-14.49,.33-3.75,2.86-4.66,7.23-6.21,11.35,13.62,7.86,28.28,11.81,43.64,15.27Zm-36.77-189.02l-37.03-12.43c-.15,10.73,1.87,20.88,5.03,31.22,1.92-.46,3.76-.45,5.07-1.28,8.86-5.62,17.61-11.43,26.93-17.51Zm196.5,0l-29.22,12.65c5.28,8,12.08,14.8,21.76,18.15,.8,.28,2.21,.21,2.69-.3,1.19-1.29,2.46-2.8,2.91-4.44,2.41-8.71,2.53-17.6,1.86-26.05Zm45.56-30.5c-5.5,3.81-24.17,16.48-28.96,19.66,5.29,4.26,10.91,7.36,17.22,8.08s11.01,.44,12.96-7.2c1.06-4.15,.59-8.74,.43-13.12-.08-2.3-.98-4.58-1.64-7.43Zm45.34-21.6l-24.33,10.68c1.48,9.04,11.36,12.51,17.13,7.2,5.04-4.63,7.48-10.49,7.2-17.88Zm-230.48-93.06c-.49,.25-.8,.33-1,.53-13.98,13.16-31,20.7-48.89,26.77-16.19,5.49-32.7,6.04-49.57,4.74-12.03-.93-23.53-3.96-34.68-7.91-7.95-2.81-15.49-7.23-22.61-11.87-14.47-9.43-25.94-21.99-35.94-36.05-6.38-8.98-12.59-18.16-16.26-28.45s-6.18-21.85-8.45-32.96c-1.27-6.24-1.23-12.78-1.48-19.2-.65-17.1,2.88-33.33,9.08-49.32s14.82-28.3,24.93-40.78,23.47-22.95,38.33-30.39c6.95-3.48,14.08-6.69,21.34-9.47,18.09-6.92,36.78-8.58,55.9-5.41,16.7,2.77,32.11,9.17,47.21,16.54,12.09,5.9,22.45,14.12,31.83,23.57,5.33,5.36,10.67,10.93,14.84,17.18,4.93,7.39,8.61,15.62,12.8,23.5,.58,1.09,.99,2.26,1.68,3.85,.94-4.88,1.57-9.3,2.67-13.61,6.45-25.36,18.81-47.06,38.75-64.47,12.56-10.97,26.1-20.41,40.81-28.03,11.24-5.82,23.34-9.37,36.02-11.19,18.9-2.71,36.9,.58,54.62,6.75,4.77,1.66,9.55,3.32,14.21,5.27,19.47,8.18,34.58,21.88,47.61,38.11,3.69,4.6,7.37,9.24,10.74,14.08,9.69,13.93,15.71,29.55,19.88,45.84,1.68,6.57,2.01,13.51,2.69,20.31,2.05,20.48-1.59,40.23-9.21,59.08-4.65,11.51-11.43,22.03-19.28,31.8-12.29,15.29-27.18,27.5-44.66,36.1-13.42,6.6-27.8,10.73-42.85,12.54-10.43,1.26-20.81,1.73-31.21,.96-11.69-.86-23.11-3.43-34.3-6.96-12-3.78-22.54-10.34-32.87-17.28-11.4-7.66-21.32-17.06-29.28-28.15-5.49-7.66-9.54-16.35-14.22-24.58-.49-.86-.96-1.74-1.86-3.36-.35,3.43-.64,5.99-.86,8.56-1.14,13.63-6.05,25.93-13.06,37.52-5.49,9.08-12.22,17.13-19.73,24.6-1.28,1.27-2.27,3.35-2.42,5.14-2.23,26.17-4.86,52.34-3.32,78.65,.71,12.18,3.6,24.01,9.79,34.66,4.01,6.9,9.91,11.95,18.39,12.21,6.65,.2,12.56-2.23,17.33-7.03,7.22-7.27,10.66-16.58,13.81-25.98,6.2-18.52,8.86-37.7,10.16-57.1,.38-5.73,1.55-7.23,5.73-7.31,3.44-.07,5.2,1.44,5.04,4.88-.32,6.84-.57,13.7-1.41,20.48-2.52,20.27-7.41,39.94-15.94,58.59-4.72,10.33-12.2,17.71-22.9,21.84-8.29,3.2-16.3,2.72-24.07-1.35-12.16-6.36-18.36-17.1-21.83-29.91-5.78-21.37-6.36-43.07-4.58-64.95,.8-9.88,1.7-19.75,2.55-29.62,.05-.58,0-1.16,0-1.94Zm38.86-91.39l-.54-.11c0-2.95,.06-5.9,0-8.85-.34-14.62-2.87-28.93-6.7-42.99-2.8-10.29-6.52-20.31-12.73-29.08-4.62-6.53-9.59-12.88-15.03-18.74-4.92-5.31-10.13-10.7-16.17-14.55-15.41-9.82-31.92-17.57-49.66-22.33-5.37-1.44-10.9-2.8-16.41-3.14-19.89-1.22-38.84,3.36-56.68,11.68-18.12,8.44-34.15,19.85-46.27,36.3-13.91,18.89-23.84,39.39-27.13,62.79-1.6,11.35-1.3,22.69,.37,34.02,2.22,15.08,7.16,29.28,14.62,42.47s16.98,25.81,28.37,36.58,23.64,18.88,38.18,23.4c15.49,4.81,31.32,8.32,47.84,7.45,9.66-.51,18.97-2.16,28.09-5.26,15.12-5.15,28.58-13.52,41.61-22.4,12.35-8.42,22.6-19.32,31.07-31.68,5.72-8.35,10.96-17.15,12.96-27.21,1.87-9.36,2.83-18.9,4.19-28.36Zm257.61-42.28c-.35-5.98-.66-11.98-1.46-17.91-1.99-14.74-6.56-28.62-13.95-41.64-6.61-11.65-15.19-21.74-23.75-31.88-6.1-7.23-13.13-13.63-21.19-18.36-18.89-11.07-39.01-19.06-61.3-19.46-7.85-.14-15.95-.13-23.54,1.58-19.93,4.5-37.35,14.61-53.7,26.55-4.59,3.35-9.14,6.88-13.11,10.92-10.11,10.27-18.52,21.79-24.63,34.96-7.73,16.69-11.7,34.22-12.19,52.53-.35,12.91,.77,25.74,5.13,38,2.5,7.03,5.4,13.97,8.81,20.6,3.31,6.45,6.9,12.91,11.4,18.55,10.53,13.21,23.15,24.15,38.13,32.24,18.24,9.86,37.63,15.28,58.41,14.84,17.46-.37,34.84-2.43,51.08-9.03,9.46-3.85,18.54-9.16,26.89-15.08,7.42-5.26,14.11-11.81,20.19-18.63s11.84-13.77,15.72-21.68c8.75-17.86,14.27-36.86,13.07-57.11Zm-62.08-216.64c-1.1,3.34-1.57,7.13-3.5,9.89-1.66,2.38-4.85,3.89-7.61,5.28-8.01,4.02-16.73,5.84-25.54,6.6-3.46,.3-7.82-.48-10.55-2.46-26.7-19.3-57.38-28.84-88.66-37.05-15.83-4.16-32.03-4.82-48.27-5.16-4.64-.1-9.29,.17-13.92-.04-21.07-.95-40.8,5.05-60.5,11.39-10.6,3.42-21.48,6.04-31.95,9.82-12.63,4.56-24.15,11.55-35.28,18.95-11.22,7.46-21.83,15.81-32.93,23.44-6.69,4.6-14.19,7.41-22.54,6.86-4.93-.33-9.85-.85-14.75-1.46-8.95-1.11-11.06-6.01-12.76-13.44-1.85-8.07-1.12-16.4,2.52-23.79,2.29-4.66,6.15-8.81,10.03-12.4,11.2-10.38,24.89-17.28,37.38-25.88,10.74-7.39,23-11.25,35.01-15.78,5.88-2.22,11.82-4.68,17.1-8.03,14.55-9.24,30.75-14.27,47.07-18.78,10.3-2.84,21-4.43,31.62-5.84,25.73-3.42,51.48-2.96,77.15,.95,10.51,1.6,21.17,2.7,31.45,5.28,12.84,3.22,25.43,7.5,37.99,11.74,23.67,7.99,44.95,20.48,65.19,34.97,7.06,5.06,11.71,11.68,15.03,19.43,.67,1.56,.5,3.48,.72,5.23l.5,.27ZM262.97,11.04v-.75c-7.47,0-14.96-.28-22.42,.06-12.55,.59-24.82,3.21-37.09,5.79-14.98,3.16-29.69,7.01-43.44,14-8.82,4.48-17.67,8.91-26.66,13.02-5.25,2.4-11.2,3.44-16.15,6.29-14.05,8.08-27.9,16.55-41.53,25.34-6.6,4.26-13.04,8.99-17.66,15.63-4.48,6.44-5.61,13.54-3.76,21.03,.37,1.5,2.01,2.84,3.35,3.9,3.29,2.61,7.39,2.4,11.21,2.34,6.68-.1,13.54,.14,19.36-4.15,1.27-.94,2.53-1.89,3.78-2.84,5.26-4.02,10.35-8.28,15.8-12.01,7.47-5.11,15.36-9.62,22.81-14.76,11.12-7.68,23.27-13.16,36.05-17.24,11.32-3.61,22.98-6.18,34.16-10.16,12.51-4.45,25.09-7.93,38.41-8.23,12.01-.27,24.03-.42,36.04-.65,4.21-.08,8.48-.75,12.62-.26,17.6,2.09,34.84,6.05,51.84,11.04,22.93,6.73,44.78,15.9,65.12,28.59,4.58,2.86,9.42,5.98,15.34,4.29,6.25-1.79,12.51-3.57,18.63-5.75,3.87-1.38,4.89-4.65,3.22-8.5-2.43-5.57-5.46-10.72-10.71-14.14-4.75-3.1-9.8-5.8-14.24-9.29-10.33-8.11-22.31-13.23-34.06-18.49-29.33-13.12-60.15-21.17-92.18-23.99-9.2-.81-18.54-.12-27.81-.12ZM103.04,526c-12.61,3.04-24.36,8.29-35.55,14.54-6.91,3.86-13.31,8.9-19.21,14.21-9.44,8.48-14.93,19.75-19.85,31.23-6.19,14.43-7.58,29.67-7.6,45.15-.01,11.69,3.78,22.53,6.93,33.57,4.48,15.73,11.34,30.43,21.71,42.82,9.35,11.16,20.21,21.21,31.25,30.77,19.65,17.03,41.87,30.08,66.21,39.37,12.49,4.77,24.78,10.28,37.59,13.94,20.03,5.71,40.26,11,61.25,12.05,2.92,.15,5.97,.29,8.76-.38,1.6-.38,3.56-2.18,4.02-3.74,.69-2.35-1.26-4.03-3.45-4.94-.65-.27-1.45-.21-2.18-.31-13.24-1.87-26.58-3.19-39.68-5.73-22.16-4.29-43.86-10.72-64.52-19.72-25.29-11.01-49.06-24.79-69.6-43.61-9.62-8.82-18.15-18.57-25.45-29.3-10.69-15.73-16.87-33.34-20.45-51.95s-1.18-37.17,5.17-55c1.92-5.39,4.61-10.75,8.05-15.29,8.83-11.64,19.85-20.82,33.2-27.12,13.13-6.2,26.73-10.92,41.09-12.96,10.31-1.47,20.74-2.13,31.11-3.16,3.05-.3,4.87-2.23,4.77-5.01-.1-2.96-1.87-4.75-5.02-4.82-4.11-.09-8.21-.02-12.32-.02-12.26,.73-24.3,2.54-36.22,5.41Zm526.26,47.75c-3.49-11.59-8.59-22.34-14.83-32.68-8.13-13.48-18.53-24.85-30.89-34.39-17.18-13.26-35.9-23.99-56.14-31.9-3.08-1.2-6.52-1.57-9.83-2.03-2.33-.32-4.06,.8-4.65,3.25-.56,2.37,.39,4.12,2.43,5.23,1.56,.85,3.22,1.55,4.89,2.17,6.49,2.42,13.33,4.17,19.44,7.32,10.65,5.49,21.31,11.19,31.13,18,11.74,8.15,21.59,18.59,29.59,30.51,4.62,6.89,9.11,14.01,12.51,21.54,5.86,12.95,8.92,26.72,9.56,41,.58,12.99,1.26,26.09-2.51,38.65-6.86,22.82-17.01,43.93-33.74,61.47-11.35,11.9-23.5,22.7-37.95,30.7-5.34,2.96-10.73,5.83-16.1,8.75-2.92,1.59-4.35,4.93-3.27,7.71,1.32,3.39,4.13,2.65,6.4,1.78,5.38-2.05,10.91-4,15.86-6.88,16.07-9.32,29.93-21.37,42.68-34.9,16.49-17.5,27.17-38.16,34.69-60.67,4.19-12.54,5.15-25.55,5.04-38.7-.11-12.13-.78-24.16-4.32-35.93Zm-211.16-103.37c3.79,0,7.58,.05,11.37,0,12.25-.17,24.15-2.58,35.35-7.33,22.94-9.73,42.81-23.85,58.63-43.31,1.98-2.43,3.6-5.16,5.22-7.86,1.21-2.03,.92-4-.91-5.68s-3.92-2-5.74-.61c-2.05,1.55-3.8,3.55-5.46,5.55-9.65,11.61-19.39,23.04-32.84,30.62-16.51,9.31-33.26,17.58-52.74,18.63-14.88,.8-29.65,1.07-44.15-3.03-2.13-.6-4.21-1.46-6.38-1.77-2.3-.33-4.64-.13-5.78,2.54-1.04,2.43-1.16,5.06,.98,6.59s4.73,2.55,7.25,2.86c11.69,1.44,23.42,2.55,35.14,3.79l.07-.97Zm-267.79,30.24c14.65-2.41,28.48-7.4,41.62-14.31,3.91-2.06,4.78-5.8,1.37-8.49-1.44-1.14-4.42-1.27-6.32-.67-3.99,1.26-7.7,3.37-11.56,5.04-14.95,6.45-30.35,10.7-46.85,9.76-8.86-.51-17.75-1.11-25.79-5.24-6.05-3.1-12.42-6.08-17.48-10.46-5.89-5.11-10.52-11.68-15.68-17.62-1.03-1.19-1.81-2.69-3.05-3.55-1.06-.74-2.93-1.43-3.86-.97-1.31,.64-2.69,2.27-2.94,3.67-.3,1.71,.09,3.89,.98,5.39,6.37,10.68,15,19.54,25.39,25.99,13.4,8.3,28.4,12.6,46.63,13.18,4.35-.4,11.02-.64,17.54-1.71Zm-48.92-174.54c.9,2.91,1.72,5.93,1.91,8.94,.32,4.95,2.75,7.38,7.49,8.22,6.47,1.16,8.99,.17,11.69-4.36,1.03-1.72,3.07-2.81,4.46-4.36,1.75-1.96,4.7-4.14,4.63-6.14-.13-3.62-1.05-8.67-3.55-10.43-4.06-2.86-9.64-3.56-13.39-4.78-8.82-.09-15.12,6.83-13.24,12.91Zm302.5-23.05c.39-.96,1.86-1.85,2.98-2.09,4.66-.99,7.47-4.7,6.76-9.32-.93-6.07-4.49-9.29-9.44-8.8-1.26,.12-2.88-.07-3.83-.78-2.98-2.26-6.11-3.06-9.4-1.22-3.46,1.93-4.59,5.97-3.69,10.03,.4,1.83,.33,3.95-.16,5.77-1.55,5.73,2.64,11.43,9.69,11.48,2.58-.23,5.57-1.28,7.1-5.06Z"/>
  </g>
</svg>