<svg xmlns="http://www.w3.org/2000/svg"  viewBox="0 0 50 50" width="50px" height="50px"><path d="M 16.509766 0.89257812 C 16.228445 0.90353249 15.946472 0.95447455 15.662109 1.0566406 A 1.0001 1.0001 0 0 0 15 1.9960938 C 15 5.9184156 14.406148 9.282398 14.181641 10.480469 L 5.1894531 8.7421875 A 1.0001 1.0001 0 0 0 4 9.7246094 C 4 15.331624 6.7019135 18.366166 8.1640625 19.785156 C 7.5213883 19.925831 7.3392811 19.917357 6.3183594 20.246094 C 4.3693038 20.87369 2.0043536 21.854216 0.3046875 23.496094 A 1.0001 1.0001 0 0 0 0.4140625 25.025391 C 2.5102495 26.544078 4.3639984 27.311629 5.7226562 27.908203 C 6.7012482 28.337894 7.0416917 28.684323 7.4433594 29.058594 C 4.9729233 31.294683 2.4511719 33.039063 2.4511719 33.039062 A 1.0001 1.0001 0 0 0 2.734375 34.839844 L 8.9140625 36.544922 C 8.8625125 37.401493 8.6543405 39.559144 7.1113281 42.541016 A 1.0001 1.0001 0 0 0 8 44 C 10.797569 44 13.371807 43.243928 14.035156 43.035156 C 16.329163 47.199032 20.349278 50 25 50 C 29.639927 50 33.652509 47.212313 35.949219 43.064453 C 36.72332 43.374747 38.578568 44 41 44 A 1.0001 1.0001 0 0 0 41.945312 42.673828 C 41.180557 40.457565 41.068141 37.525202 41.041016 36.548828 C 41.582365 36.412007 42.35517 36.233666 43.710938 35.787109 C 44.593646 35.496366 45.49076 35.166237 46.236328 34.796875 C 46.609112 34.612194 46.943672 34.42011 47.242188 34.183594 C 47.5407 33.947077 47.861525 33.667172 47.978516 33.117188 A 1.0001 1.0001 0 0 0 47.541016 32.068359 C 45.490031 30.747526 44.213144 29.241752 43.517578 28.359375 C 44.944468 27.684642 48.162292 25.955283 49.923828 21.701172 A 1.0001 1.0001 0 0 0 49 20.318359 C 45.180206 20.318359 42.549496 19.832985 41.337891 19.583984 C 41.803532 18.148019 43.388337 13.430825 45.789062 10.337891 A 1.0001 1.0001 0 0 0 45.189453 8.7421875 C 40.77031 7.8884091 37.260909 9.4855473 35.779297 10.238281 C 35.525681 8.8476355 35 5.7272524 35 1.9960938 A 1.0001 1.0001 0 0 0 34.337891 1.0566406 C 33.200441 0.64797627 32.084646 1.0545907 31.009766 1.6074219 C 29.934885 2.1602531 28.85494 2.9512551 27.865234 3.7617188 C 26.287834 5.0534413 25.481628 5.9308797 25 6.4296875 C 24.518372 5.9308797 23.712166 5.0534415 22.134766 3.7617188 C 21.14506 2.951255 20.065115 2.1602531 18.990234 1.6074219 C 18.452794 1.3310063 17.905316 1.0907953 17.349609 0.97070312 C 17.071756 0.91065706 16.791087 0.88162377 16.509766 0.89257812 z M 16.917969 3.0878906 C 17.24114 3.1223266 17.50114 3.0909706 18.076172 3.3867188 C 18.939292 3.8306374 19.942846 4.5500573 20.869141 5.3085938 C 22.721729 6.8256666 24.269531 8.4765625 24.269531 8.4765625 A 1.0001 1.0001 0 0 0 25.730469 8.4765625 C 25.730469 8.4765625 27.278271 6.8256666 29.130859 5.3085938 C 30.057154 4.5500573 31.060708 3.8306374 31.923828 3.3867188 C 32.49886 3.0909689 32.75886 3.1223266 33.082031 3.0878906 C 33.220752 7.6173333 34.021484 11.859375 34.021484 11.859375 A 1.0001 1.0001 0 0 0 35.501953 12.521484 C 35.501953 12.521484 39.255727 10.559151 43.236328 10.667969 C 40.643079 14.770648 39.041016 20.068359 39.041016 20.068359 A 1.0001 1.0001 0 0 0 39.765625 21.324219 C 39.765625 21.324219 43.109454 21.991068 47.289062 22.1875 C 45.205036 25.580767 41.638672 27.146484 41.638672 27.146484 A 1.0001 1.0001 0 0 0 41.177734 28.648438 C 41.177734 28.648438 42.949237 30.949687 45.496094 32.916016 C 45.435684 32.948646 45.415024 32.970526 45.347656 33.003906 C 44.755318 33.297357 43.919353 33.612212 43.085938 33.886719 C 41.419106 34.435732 39.765625 34.835937 39.765625 34.835938 A 1.0001 1.0001 0 0 0 39 35.808594 C 39 35.808594 39.107559 38.94022 39.771484 41.833984 C 38.216608 41.657695 37.232474 41.353377 36.818359 41.216797 C 37.571513 39.31431 38 37.211343 38 35 L 38 26 C 38 17.80473 32.257552 11 25 11 C 17.742448 11 12 17.80473 12 26 L 12 35 C 12 37.193008 12.420716 39.279803 13.162109 41.169922 C 12.569574 41.315879 11.216141 41.635167 9.453125 41.822266 C 10.735348 38.560998 11 35.808594 11 35.808594 A 1.0001 1.0001 0 0 0 10.265625 34.84375 L 5.2910156 33.470703 C 6.501816 32.578871 8.0680642 31.349264 9.6972656 29.761719 A 1.0001 1.0001 0 0 0 9.8886719 28.585938 C 9.2010195 27.257393 7.9186859 26.689051 6.5273438 26.078125 C 5.5065583 25.629907 4.1982907 24.888998 2.9023438 24.117188 C 4.1372346 23.290384 5.5781077 22.584273 6.9316406 22.148438 C 8.7325851 21.568532 10.158203 21.339844 10.158203 21.339844 A 1.0001 1.0001 0 0 0 10.611328 19.560547 C 10.611328 19.560547 6.8084785 16.398256 6.2167969 10.978516 L 14.810547 12.638672 A 1.0001 1.0001 0 0 0 15.978516 11.859375 C 15.978516 11.859375 16.779248 7.6173333 16.917969 3.0878906 z M 25 13 C 30.996448 13 36 18.73127 36 26 L 36 35 C 36 42.26873 30.996448 48 25 48 C 19.003552 48 14 42.26873 14 35 L 14 26 C 14 18.73127 19.003552 13 25 13 z M 16.960938 20.986328 A 1.0001 1.0001 0 0 0 16.648438 22.935547 C 16.648438 22.935547 17.347163 23.179727 18.615234 23.431641 C 17.078992 24.150073 16 25.701061 16 27.5 C 16 29.973437 18.026563 32 20.5 32 C 22.973437 32 25 29.973437 25 27.5 C 25 26.059309 24.301205 24.784294 23.238281 23.958984 C 23.794851 23.983639 24.375872 24 25 24 C 25.624128 24 26.205149 23.983639 26.761719 23.958984 C 25.698795 24.784294 25 26.059309 25 27.5 C 25 29.973437 27.026563 32 29.5 32 C 31.973437 32 34 29.973437 34 27.5 C 34 25.701061 32.921008 24.150073 31.384766 23.431641 C 32.652837 23.179727 33.351563 22.935547 33.351562 22.935547 A 1.0001 1.0001 0 0 0 33.009766 20.994141 A 1.0001 1.0001 0 0 0 32.648438 21.064453 C 32.648438 21.064455 30.207992 22 25 22 C 19.792008 22 17.351564 21.064453 17.351562 21.064453 A 1.0001 1.0001 0 0 0 16.960938 20.986328 z M 20.5 25 C 21.892557 25 23 26.107443 23 27.5 C 23 28.892557 21.892557 30 20.5 30 C 19.107443 30 18 28.892557 18 27.5 C 18 26.107443 19.107443 25 20.5 25 z M 29.5 25 C 30.892557 25 32 26.107443 32 27.5 C 32 28.892557 30.892557 30 29.5 30 C 28.107443 30 27 28.892557 27 27.5 C 27 26.107443 28.107443 25 29.5 25 z M 30 26 A 1 1 0 0 0 29 27 A 1 1 0 0 0 30 28 A 1 1 0 0 0 31 27 A 1 1 0 0 0 30 26 z M 20 27 A 1 1 0 0 0 19 28 A 1 1 0 0 0 20 29 A 1 1 0 0 0 21 28 A 1 1 0 0 0 20 27 z M 25.984375 31.986328 A 1.0001 1.0001 0 0 0 25 33 L 25 35.769531 C 25 35.879135 24.989599 35.875359 24.980469 35.939453 C 24.932339 35.929053 25.001882 35.936256 24.919922 35.898438 C 24.400224 35.658597 23.677734 35.033203 23.677734 35.033203 A 1.0001 1.0001 0 1 0 22.322266 36.503906 C 22.322266 36.503906 23.099776 37.262434 24.080078 37.714844 C 24.570229 37.941049 25.209317 38.188069 25.951172 37.845703 C 26.322099 37.67452 26.629658 37.328764 26.789062 36.960938 C 26.94847 36.593114 27 36.205942 27 35.769531 L 27 33 A 1.0001 1.0001 0 0 0 25.984375 31.986328 z M 25 39 C 20.833333 39 17.683594 40.050781 17.683594 40.050781 A 1.0005646 1.0005646 0 1 0 18.316406 41.949219 C 18.316406 41.949219 18.635479 41.856944 19.09375 41.738281 C 19.138645 41.942953 19.199054 42.163408 19.302734 42.400391 C 19.53459 42.930347 20.144345 43.4273 20.904297 43.716797 C 20.941327 43.974475 20.897997 44.046765 21.052734 44.400391 C 21.369608 45.124674 22.244048 46 23.5 46 C 24.755952 46 25.630392 45.124674 25.947266 44.400391 C 26.090452 44.073108 26.044156 44.017346 26.083984 43.767578 C 26.311229 43.712688 26.35213 43.772878 26.621094 43.619141 C 27.27272 43.246782 27.92074 42.381687 27.986328 41.191406 C 30.214657 41.468133 31.683594 41.949219 31.683594 41.949219 A 1.0005646 1.0005646 0 1 0 32.316406 40.050781 C 32.316406 40.050781 29.166667 39 25 39 z M 25 41 C 25.344378 41 25.670891 41.015351 25.998047 41.029297 C 25.991861 41.703604 25.8138 41.775206 25.628906 41.880859 C 25.440748 41.988378 25.25 42 25.25 42 A 1.0001 1.0001 0 0 0 24.25 43 C 24.25 43 24.23586 43.323893 24.115234 43.599609 C 23.994608 43.875326 23.994048 44 23.5 44 C 23.005952 44 23.005392 43.875326 22.884766 43.599609 C 22.76414 43.323893 22.75 43 22.75 43 A 1.0001 1.0001 0 0 0 21.75 42 C 21.255952 42 21.255392 41.875326 21.134766 41.599609 C 21.093808 41.505992 21.078613 41.416333 21.058594 41.326172 C 22.148345 41.148082 23.492811 41 25 41 z"/></svg>